<svg width="471" height="340" viewBox="0 0 471 340" fill="none" xmlns="http://www.w3.org/2000/svg">
<path d="M19.24 291.21C19.24 292.01 19.37 292.66 19.62 293.18C19.87 293.69 20.18 294.13 20.56 294.48C20.94 294.83 21.34 295.12 21.77 295.35C22.2 295.58 22.61 295.82 22.98 296.07C23.36 296.32 23.67 296.61 23.92 296.92C24.17 297.24 24.3 297.65 24.3 298.15C24.3 298.99 24 299.64 23.41 300.08C22.82 300.52 22.13 300.75 21.36 300.75C20.63 300.75 19.95 300.52 19.33 300.07C18.7 299.61 18.16 298.99 17.69 298.21C17.22 297.42 16.85 296.5 16.58 295.44C16.31 294.38 16.17 293.26 16.17 292.07C16.17 290.61 16.4 289.22 16.85 287.88C17.31 286.55 17.98 285.37 18.87 284.36C19.76 283.35 20.86 282.54 22.17 281.95C23.48 281.36 24.98 281.06 26.66 281.06C27.8 281.06 29.04 281.25 30.39 281.62C31.73 282 33.07 282.59 34.41 283.41C35.75 284.23 37.03 285.29 38.27 286.59C39.51 287.89 40.62 289.47 41.59 291.34C42.56 293.21 43.33 295.37 43.9 297.83C44.47 300.29 44.75 303.08 44.75 306.2C44.75 310.23 44.15 313.85 42.96 317.03C41.76 320.22 40.15 322.93 38.11 325.15C36.07 327.37 33.71 329.07 31.02 330.24C28.33 331.41 25.48 332 22.48 332C19.49 332 16.65 331.49 13.94 330.46C11.23 329.43 8.84 327.87 6.78 325.76C4.72 323.65 3.08 320.97 1.86 317.73C0.61 314.5 0 310.66 0 306.21C0 302.77 0.46 299.64 1.38 296.81C2.3 293.98 3.54 291.48 5.11 289.29C6.67 287.1 8.49 285.26 10.56 283.77C12.63 282.28 14.83 281.14 17.16 280.37L18.32 281.84C17.66 282.5 17.04 283.18 16.47 283.89C15.9 284.6 15.38 285.4 14.9 286.3C14.42 287.2 13.99 288.24 13.62 289.41C13.24 290.58 12.93 291.96 12.68 293.55C12.43 295.13 12.24 296.96 12.1 299.04C11.96 301.11 11.89 303.51 11.89 306.22C11.89 309.73 12.08 312.73 12.45 315.21C12.83 317.69 13.32 319.77 13.92 321.45C14.52 323.12 15.21 324.46 15.97 325.45C16.73 326.44 17.5 327.19 18.28 327.69C19.05 328.19 19.81 328.52 20.54 328.66C21.27 328.81 21.91 328.88 22.45 328.88C22.99 328.88 23.63 328.81 24.35 328.66C25.07 328.51 25.81 328.19 26.57 327.69C27.33 327.19 28.09 326.44 28.84 325.45C29.59 324.46 30.26 323.13 30.84 321.45C31.42 319.77 31.89 317.7 32.26 315.21C32.62 312.73 32.81 309.73 32.81 306.22C32.81 303.14 32.67 300.47 32.4 298.19C32.13 295.91 31.77 293.96 31.32 292.35C30.88 290.73 30.36 289.41 29.78 288.37C29.2 287.33 28.59 286.51 27.97 285.91C27.34 285.31 26.72 284.89 26.09 284.66C25.46 284.43 24.89 284.32 24.36 284.32C23.54 284.32 22.81 284.51 22.17 284.9C21.53 285.29 21 285.81 20.56 286.46C20.13 287.11 19.8 287.85 19.57 288.68C19.36 289.5 19.24 290.34 19.24 291.21ZM81.01 328.47C81.01 328.77 80.97 329.12 80.87 329.53C80.77 329.94 80.56 330.33 80.2 330.69C79.85 331.06 79.32 331.37 78.61 331.63C77.9 331.89 76.95 332.02 75.74 332.02C74.53 332.02 73.58 331.88 72.89 331.59C72.19 331.31 71.67 330.97 71.32 330.58C70.97 330.19 70.74 329.79 70.65 329.38C70.56 328.97 70.51 328.64 70.51 328.39V304.22C70.51 303.9 70.46 303.58 70.37 303.25C70.28 302.92 70.14 302.62 69.96 302.34C69.78 302.07 69.55 301.84 69.28 301.67C69.01 301.5 68.69 301.41 68.32 301.41C67.7 301.41 67.1 301.59 66.51 301.94C65.92 302.29 65.36 302.7 64.85 303.15C64.34 303.61 63.89 304.06 63.52 304.52C63.14 304.98 62.88 305.32 62.72 305.55V328.45C62.72 328.75 62.67 329.1 62.58 329.51C62.49 329.92 62.27 330.31 61.91 330.67C61.56 331.04 61.03 331.35 60.34 331.61C59.64 331.87 58.69 332 57.49 332C56.28 332 55.33 331.86 54.64 331.57C53.94 331.29 53.41 330.95 53.05 330.56C52.69 330.17 52.46 329.77 52.37 329.36C52.28 328.95 52.23 328.62 52.23 328.37V301.98C52.23 301.32 52.08 300.74 51.77 300.25C51.46 299.76 50.94 299.52 50.21 299.52C49.82 299.52 49.49 299.59 49.22 299.73C48.95 299.87 48.65 300.06 48.33 300.31L47.61 299.46C48.13 299.03 48.72 298.6 49.37 298.18C50.02 297.76 50.72 297.39 51.47 297.07C52.22 296.75 53.03 296.49 53.9 296.28C54.77 296.07 55.68 295.97 56.63 295.97C58.11 295.97 59.26 296.22 60.08 296.7C60.9 297.19 61.5 297.78 61.89 298.46C62.28 299.14 62.51 299.86 62.59 300.6C62.67 301.34 62.71 301.96 62.71 302.46C63.78 301.25 64.93 300.17 66.16 299.21C66.66 298.8 67.21 298.4 67.82 298.01C68.42 297.62 69.04 297.28 69.68 296.97C70.32 296.66 70.98 296.42 71.66 296.24C72.34 296.06 73.03 295.97 73.71 295.97C75.03 295.97 76.16 296.21 77.09 296.69C78.02 297.17 78.78 297.74 79.35 298.42C79.92 299.09 80.34 299.8 80.6 300.54C80.86 301.28 80.99 301.92 80.99 302.47C82.08 301.26 83.23 300.18 84.44 299.22C84.94 298.81 85.49 298.41 86.08 298.02C86.67 297.63 87.29 297.29 87.94 296.98C88.59 296.67 89.25 296.43 89.92 296.25C90.59 296.07 91.27 295.98 91.95 295.98C93.27 295.98 94.4 296.23 95.33 296.71C96.26 297.2 97.02 297.84 97.59 298.64C98.16 299.44 98.58 300.34 98.84 301.34C99.1 302.34 99.23 303.35 99.23 304.35V325.51C99.23 325.72 99.24 325.94 99.27 326.18C99.29 326.42 99.35 326.65 99.44 326.86C99.53 327.08 99.67 327.25 99.87 327.39C100.07 327.53 100.32 327.6 100.64 327.6C101.07 327.6 101.46 327.45 101.8 327.14C102.14 326.83 102.46 326.52 102.76 326.2L103.58 326.92C103.26 327.4 102.84 327.93 102.31 328.51C101.79 329.09 101.17 329.64 100.45 330.17C99.73 330.69 98.9 331.13 97.95 331.49C97 331.84 95.94 332.02 94.75 332.02C93.75 332.02 92.87 331.89 92.13 331.63C91.39 331.37 90.76 331.01 90.25 330.57C89.74 330.13 89.35 329.6 89.1 329C88.85 328.4 88.72 327.75 88.72 327.07V304.24C88.72 303.92 88.67 303.6 88.58 303.27C88.49 302.94 88.36 302.64 88.19 302.36C88.02 302.09 87.8 301.86 87.52 301.69C87.24 301.52 86.93 301.43 86.56 301.43C85.94 301.43 85.34 301.61 84.73 301.96C84.13 302.31 83.57 302.72 83.06 303.17C82.55 303.63 82.11 304.08 81.74 304.54C81.37 305 81.11 305.34 80.95 305.57V328.47H81.01ZM118.88 336.43C119.79 336.43 120.69 336.26 121.58 335.93C122.47 335.6 123.26 335.05 123.96 334.29C124.65 333.53 125.22 332.53 125.65 331.3C126.08 330.07 126.3 328.57 126.3 326.79C126.3 324.88 125.83 323.02 124.88 321.22C123.93 319.42 122.75 317.65 121.33 315.91C119.91 314.17 118.37 312.44 116.72 310.71C115.07 308.99 113.53 307.24 112.1 305.45C110.68 303.66 109.49 301.82 108.55 299.91C107.6 298.01 107.13 296.02 107.13 293.95C107.13 291.88 107.51 290 108.27 288.33C109.03 286.66 110.07 285.23 111.38 284.06C112.69 282.89 114.22 281.98 115.96 281.34C117.7 280.7 119.57 280.38 121.55 280.38C123.67 280.38 125.55 280.6 127.21 281.05C128.87 281.5 130.26 282.1 131.42 282.86C132.57 283.62 133.44 284.52 134.03 285.56C134.62 286.6 134.92 287.7 134.92 288.86C134.92 289.41 134.84 289.97 134.68 290.55C134.52 291.13 134.27 291.66 133.93 292.14C133.59 292.62 133.15 293.02 132.63 293.34C132.11 293.66 131.49 293.82 130.78 293.82C129.94 293.82 129.32 293.56 128.92 293.05C128.52 292.54 128.22 291.9 128.03 291.15C127.84 290.4 127.67 289.57 127.53 288.67C127.39 287.77 127.18 286.94 126.88 286.19C126.58 285.44 126.14 284.81 125.55 284.29C124.96 283.78 124.09 283.52 122.95 283.52C122.33 283.52 121.72 283.66 121.12 283.93C120.52 284.2 119.97 284.62 119.48 285.18C118.99 285.74 118.6 286.45 118.3 287.32C118 288.19 117.86 289.21 117.86 290.4C117.86 291.77 118.14 293.1 118.71 294.4C119.28 295.7 120.03 296.98 120.97 298.25C121.9 299.51 122.97 300.78 124.17 302.04C125.37 303.3 126.58 304.58 127.83 305.87C129.07 307.16 130.29 308.48 131.49 309.83C132.69 311.19 133.75 312.59 134.69 314.05C135.62 315.51 136.38 317.04 136.95 318.63C137.52 320.23 137.8 321.9 137.8 323.65C137.8 326.23 137.3 328.52 136.31 330.54C135.32 332.56 133.97 334.25 132.28 335.63C130.59 337.01 128.59 338.06 126.32 338.79C124.04 339.52 121.61 339.88 119.04 339.88C116.72 339.88 114.66 339.59 112.87 339.01C111.08 338.43 109.57 337.66 108.34 336.7C107.11 335.74 106.18 334.65 105.55 333.44C104.92 332.23 104.61 330.96 104.61 329.66C104.61 329.11 104.7 328.53 104.87 327.9C105.04 327.27 105.29 326.7 105.62 326.17C105.95 325.65 106.37 325.21 106.87 324.85C107.37 324.5 107.95 324.32 108.61 324.32C109.29 324.32 109.85 324.49 110.27 324.83C110.69 325.17 111.03 325.63 111.28 326.2C111.53 326.77 111.74 327.42 111.9 328.15C112.06 328.88 112.23 329.62 112.41 330.37C112.59 331.12 112.82 331.86 113.09 332.59C113.36 333.32 113.74 333.97 114.22 334.54C114.7 335.11 115.31 335.57 116.07 335.91C116.83 336.25 117.74 336.43 118.88 336.43ZM154.8 302.49C155.64 301.28 156.6 300.2 157.67 299.24C158.1 298.83 158.59 298.43 159.12 298.04C159.65 297.65 160.22 297.31 160.83 297C161.43 296.69 162.07 296.45 162.74 296.27C163.41 296.09 164.1 296 164.81 296C166.34 296 167.7 296.3 168.91 296.89C170.12 297.48 171.13 298.47 171.95 299.86C172.77 301.25 173.4 303.09 173.83 305.38C174.26 307.67 174.48 310.51 174.48 313.91C174.48 317.21 174.18 320.09 173.59 322.52C173 324.96 172.22 327.03 171.27 328.74C170.32 330.45 169.23 331.84 168.02 332.93C166.81 334.01 165.59 334.86 164.36 335.48C163.13 336.1 161.94 336.52 160.81 336.76C159.67 337 158.69 337.13 157.87 337.15L157.53 335.75C158.56 335.5 159.47 335.03 160.26 334.35C161.06 333.67 161.73 332.54 162.28 330.98C162.83 329.42 163.24 327.32 163.53 324.67C163.82 322.03 163.96 318.62 163.96 314.45C163.96 311.58 163.83 309.28 163.57 307.56C163.31 305.84 162.97 304.53 162.54 303.63C162.12 302.73 161.64 302.14 161.1 301.85C160.56 301.57 160.02 301.42 159.48 301.42C158.82 301.42 158.24 301.6 157.74 301.95C157.24 302.3 156.8 302.71 156.42 303.16C156.04 303.62 155.72 304.07 155.46 304.53C155.2 304.99 154.98 305.33 154.79 305.56V328.39C154.79 328.69 154.74 329.05 154.65 329.47C154.56 329.89 154.34 330.29 153.98 330.67C153.63 331.05 153.1 331.37 152.41 331.63C151.71 331.89 150.76 332.02 149.56 332.02C148.35 332.02 147.39 331.88 146.69 331.59C145.98 331.31 145.45 330.97 145.1 330.58C144.75 330.19 144.52 329.79 144.43 329.38C144.34 328.97 144.29 328.64 144.29 328.39V284.3C144.29 283.64 144.14 283.06 143.83 282.57C143.52 282.08 143 281.84 142.28 281.84C141.89 281.84 141.56 281.9 141.27 282.03C140.98 282.16 140.68 282.34 140.36 282.59L139.68 281.77C140.2 281.34 140.78 280.91 141.42 280.49C142.06 280.07 142.76 279.7 143.52 279.38C144.28 279.06 145.1 278.8 145.96 278.59C146.83 278.38 147.74 278.28 148.69 278.28C150.17 278.28 151.32 278.48 152.14 278.88C152.96 279.28 153.56 279.77 153.95 280.35C154.34 280.93 154.57 281.55 154.65 282.2C154.73 282.85 154.77 283.43 154.77 283.93V302.49H154.8ZM191.51 298.8C190.73 298.8 190.02 298.89 189.36 299.07C188.7 299.25 188.13 299.48 187.65 299.75C187.17 300.02 186.8 300.33 186.52 300.66C186.25 300.99 186.11 301.3 186.11 301.6C186.11 301.94 186.29 302.19 186.64 302.33C186.99 302.48 187.39 302.65 187.82 302.84C188.25 303.03 188.65 303.31 189 303.66C189.35 304.01 189.53 304.55 189.53 305.28C189.53 305.76 189.43 306.2 189.24 306.6C189.05 307 188.78 307.35 188.45 307.66C188.12 307.97 187.73 308.21 187.29 308.38C186.84 308.55 186.38 308.64 185.91 308.64C184.63 308.64 183.6 308.21 182.82 307.34C182.03 306.47 181.64 305.32 181.64 303.89C181.64 302.5 182 301.31 182.73 300.32C183.46 299.33 184.41 298.51 185.58 297.88C186.75 297.24 188.08 296.77 189.56 296.46C191.04 296.15 192.52 296 194 296C195.78 296 197.47 296.19 199.09 296.58C200.71 296.97 202.14 297.58 203.38 298.43C204.62 299.27 205.61 300.34 206.35 301.64C207.09 302.94 207.46 304.51 207.46 306.36V325.67C207.46 325.88 207.47 326.1 207.49 326.35C207.51 326.6 207.57 326.83 207.66 327.03C207.75 327.24 207.89 327.41 208.07 327.54C208.25 327.68 208.51 327.75 208.86 327.75C209.27 327.75 209.65 327.6 210 327.29C210.35 326.98 210.67 326.67 210.94 326.35L211.79 327.07C211.45 327.55 211.04 328.07 210.56 328.64C210.08 329.21 209.5 329.75 208.82 330.25C208.14 330.75 207.34 331.17 206.43 331.51C205.52 331.85 204.48 332.02 203.32 332.02C201.88 332.02 200.61 331.59 199.49 330.74C198.37 329.88 197.64 328.57 197.3 326.79C196.57 327.77 195.81 328.59 195.03 329.25C194.24 329.91 193.44 330.45 192.62 330.86C191.8 331.27 190.97 331.57 190.14 331.75C189.31 331.93 188.47 332.02 187.63 332.02C186.54 332.02 185.48 331.85 184.45 331.51C183.42 331.17 182.51 330.63 181.7 329.89C180.89 329.15 180.24 328.19 179.75 327C179.26 325.82 179.01 324.37 179.01 322.66C179.01 320.59 179.42 318.89 180.24 317.57C181.06 316.25 182.14 315.14 183.47 314.24C184.8 313.34 186.32 312.57 188.02 311.93C189.72 311.29 191.45 310.62 193.23 309.91C194.55 309.39 195.51 308.61 196.12 307.57C196.72 306.53 197.03 305.47 197.03 304.37C197.03 302.68 196.53 301.33 195.54 300.32C194.57 299.31 193.22 298.8 191.51 298.8ZM196.94 313.77C196.94 313.2 196.76 312.77 196.39 312.47C196.02 312.17 195.56 312.03 194.99 312.03C194.19 312.03 193.44 312.21 192.72 312.58C192 312.94 191.37 313.48 190.82 314.19C190.27 314.9 189.84 315.77 189.52 316.81C189.2 317.85 189.04 319.05 189.04 320.42C189.04 321.74 189.14 322.84 189.33 323.7C189.52 324.57 189.79 325.25 190.12 325.77C190.45 326.28 190.83 326.64 191.27 326.85C191.7 327.06 192.16 327.16 192.64 327.16C193.23 327.16 193.79 327.01 194.31 326.7C194.83 326.39 195.29 326 195.68 325.52C196.07 325.04 196.37 324.51 196.6 323.91C196.83 323.32 196.94 322.73 196.94 322.13V313.77ZM236.52 314.45C236.52 311.58 236.39 309.28 236.13 307.56C235.87 305.84 235.52 304.53 235.09 303.63C234.66 302.73 234.18 302.14 233.65 301.85C233.13 301.57 232.59 301.42 232.04 301.42C231.38 301.42 230.79 301.6 230.28 301.95C229.77 302.3 229.32 302.71 228.95 303.16C228.57 303.62 228.25 304.07 227.99 304.53C227.73 304.99 227.51 305.33 227.32 305.56V328.39C227.32 328.69 227.27 329.05 227.18 329.47C227.09 329.89 226.87 330.29 226.51 330.67C226.16 331.05 225.63 331.37 224.94 331.63C224.24 331.89 223.29 332.02 222.09 332.02C220.88 332.02 219.93 331.88 219.24 331.59C218.54 331.31 218.02 330.97 217.65 330.58C217.28 330.19 217.06 329.79 216.97 329.38C216.88 328.97 216.83 328.64 216.83 328.39V302C216.83 301.34 216.68 300.76 216.37 300.27C216.06 299.78 215.54 299.54 214.82 299.54C214.43 299.54 214.1 299.61 213.83 299.75C213.56 299.89 213.26 300.08 212.94 300.33L212.22 299.48C212.74 299.05 213.33 298.62 213.98 298.2C214.63 297.78 215.33 297.41 216.08 297.09C216.83 296.77 217.64 296.51 218.51 296.3C219.38 296.09 220.29 295.99 221.24 295.99C222.72 295.99 223.87 296.24 224.69 296.72C225.51 297.21 226.11 297.8 226.5 298.48C226.89 299.16 227.12 299.88 227.2 300.62C227.28 301.36 227.32 301.98 227.32 302.48C228.16 301.27 229.12 300.19 230.19 299.23C230.62 298.82 231.11 298.42 231.64 298.03C232.17 297.64 232.74 297.3 233.35 296.99C233.95 296.68 234.59 296.44 235.26 296.26C235.93 296.08 236.62 295.99 237.33 295.99C238.88 295.99 240.25 296.29 241.45 296.88C242.65 297.47 243.66 298.46 244.48 299.85C245.3 301.24 245.93 303.08 246.36 305.37C246.79 307.66 247.01 310.5 247.01 313.9C247.01 317.2 246.71 320.08 246.12 322.51C245.53 324.95 244.75 327.02 243.8 328.73C242.85 330.44 241.76 331.83 240.55 332.92C239.34 334 238.12 334.85 236.89 335.47C235.66 336.09 234.48 336.51 233.35 336.75C232.22 336.99 231.25 337.12 230.43 337.14L230.05 335.74C230.73 335.58 231.37 335.33 231.95 334.99C232.53 334.65 233.06 334.15 233.54 333.49C234.02 332.83 234.44 331.99 234.8 330.98C235.16 329.97 235.48 328.7 235.74 327.17C236 325.64 236.2 323.84 236.32 321.75C236.46 319.67 236.52 317.23 236.52 314.45ZM265.17 298.93V324.19C265.17 325.4 265.4 326.24 265.85 326.7C266.31 327.17 266.93 327.4 267.73 327.4C268.35 327.4 268.89 327.23 269.37 326.89C269.85 326.55 270.26 326.16 270.6 325.73C271.01 325.25 271.36 324.69 271.66 324.06L272.72 324.54C272.38 325.27 271.97 326.07 271.51 326.93C271.04 327.8 270.42 328.6 269.65 329.34C268.87 330.08 267.9 330.7 266.73 331.2C265.56 331.7 264.08 331.95 262.3 331.95C261.3 331.95 260.33 331.8 259.41 331.51C258.49 331.21 257.67 330.75 256.95 330.11C256.23 329.47 255.66 328.67 255.22 327.72C254.79 326.76 254.57 325.61 254.57 324.27V298.94H250.74V296.48C251.38 296.48 252.27 296.31 253.41 295.98C254.55 295.65 255.72 295.1 256.91 294.32C258.11 293.55 259.22 292.51 260.24 291.21C261.26 289.91 261.99 288.3 262.43 286.39H265.16V296.47H270.73C272.55 296.47 273.46 296.16 273.46 295.55C273.46 295.32 273.35 295.17 273.12 295.09C272.89 295.01 272.64 294.91 272.35 294.78C272.06 294.65 271.81 294.48 271.58 294.25C271.35 294.02 271.24 293.65 271.24 293.12C271.24 292.48 271.44 291.98 271.84 291.62C272.24 291.26 272.76 291.07 273.39 291.07C273.8 291.07 274.16 291.16 274.47 291.33C274.78 291.5 275.03 291.73 275.24 292.01C275.45 292.3 275.6 292.62 275.7 292.98C275.8 293.34 275.85 293.71 275.85 294.07C275.85 295.55 275.42 296.73 274.57 297.61C273.71 298.49 272.34 298.93 270.45 298.93H265.17ZM289.26 328.4C289.26 328.7 289.21 329.06 289.11 329.48C289.01 329.9 288.77 330.3 288.39 330.68C288.01 331.06 287.47 331.38 286.77 331.64C286.06 331.9 285.11 332.03 283.9 332.03C282.69 332.03 281.75 331.89 281.06 331.6C280.38 331.32 279.86 330.98 279.52 330.59C279.18 330.2 278.97 329.8 278.89 329.39C278.81 328.98 278.77 328.65 278.77 328.4V302.01C278.77 301.35 278.62 300.77 278.31 300.28C278 299.79 277.48 299.55 276.76 299.55C276.37 299.55 276.04 299.62 275.77 299.76C275.5 299.9 275.2 300.09 274.88 300.34L274.16 299.49C274.68 299.06 275.27 298.63 275.92 298.21C276.57 297.79 277.27 297.42 278.02 297.1C278.77 296.78 279.58 296.52 280.45 296.31C281.32 296.1 282.23 296 283.18 296C284.66 296 285.81 296.2 286.63 296.6C287.45 297 288.05 297.49 288.44 298.07C288.83 298.65 289.06 299.27 289.14 299.93C289.22 300.59 289.26 301.17 289.26 301.67V328.4ZM277.71 288.2C277.71 287.56 277.85 286.95 278.14 286.37C278.42 285.79 278.82 285.28 279.34 284.85C279.85 284.42 280.45 284.08 281.12 283.82C281.79 283.57 282.53 283.44 283.33 283.44C284.1 283.44 284.83 283.57 285.5 283.82C286.17 284.07 286.76 284.41 287.26 284.85C287.76 285.28 288.15 285.79 288.44 286.37C288.73 286.95 288.87 287.56 288.87 288.2C288.87 288.86 288.73 289.48 288.44 290.05C288.15 290.62 287.76 291.12 287.26 291.54C286.76 291.96 286.17 292.3 285.5 292.55C284.83 292.8 284.1 292.93 283.33 292.93C282.53 292.93 281.8 292.8 281.12 292.55C280.45 292.3 279.86 291.96 279.34 291.54C278.83 291.12 278.43 290.62 278.14 290.05C277.85 289.48 277.71 288.86 277.71 288.2ZM315.65 291.21C315.65 292.01 315.78 292.66 316.03 293.18C316.28 293.69 316.59 294.13 316.97 294.48C317.35 294.83 317.75 295.12 318.18 295.35C318.61 295.58 319.02 295.82 319.39 296.07C319.77 296.32 320.08 296.61 320.33 296.92C320.58 297.24 320.71 297.65 320.71 298.15C320.71 298.99 320.41 299.64 319.82 300.08C319.23 300.52 318.54 300.75 317.77 300.75C317.04 300.75 316.36 300.52 315.74 300.07C315.11 299.61 314.57 298.99 314.1 298.21C313.63 297.43 313.26 296.5 312.99 295.44C312.72 294.38 312.58 293.26 312.58 292.07C312.58 290.61 312.81 289.22 313.26 287.88C313.72 286.55 314.39 285.37 315.28 284.36C316.17 283.35 317.27 282.54 318.58 281.95C319.89 281.36 321.39 281.06 323.07 281.06C324.21 281.06 325.45 281.25 326.8 281.62C328.14 282 329.48 282.59 330.82 283.41C332.15 284.23 333.44 285.29 334.68 286.59C335.92 287.89 337.03 289.47 338 291.34C338.97 293.21 339.74 295.37 340.31 297.83C340.88 300.29 341.16 303.08 341.16 306.2C341.16 310.23 340.56 313.85 339.37 317.03C338.17 320.22 336.55 322.93 334.52 325.15C332.48 327.37 330.12 329.07 327.43 330.24C324.74 331.41 321.89 332 318.89 332C315.9 332 313.06 331.49 310.35 330.46C307.64 329.43 305.25 327.87 303.19 325.76C301.13 323.65 299.49 320.97 298.27 317.73C297.05 314.48 296.44 310.64 296.44 306.19C296.44 302.75 296.9 299.62 297.82 296.79C298.74 293.96 299.98 291.46 301.54 289.27C303.1 287.08 304.92 285.24 306.99 283.75C309.06 282.26 311.26 281.12 313.59 280.35L314.75 281.82C314.09 282.48 313.47 283.16 312.9 283.87C312.33 284.58 311.81 285.38 311.33 286.28C310.85 287.18 310.42 288.22 310.05 289.39C309.67 290.56 309.36 291.94 309.11 293.53C308.86 295.11 308.67 296.94 308.53 299.02C308.39 301.09 308.32 303.49 308.32 306.2C308.32 309.71 308.51 312.71 308.88 315.19C309.26 317.67 309.75 319.75 310.35 321.43C310.95 323.1 311.64 324.44 312.4 325.43C313.16 326.42 313.93 327.17 314.71 327.67C315.48 328.17 316.24 328.5 316.97 328.64C317.7 328.79 318.34 328.86 318.88 328.86C319.42 328.86 320.06 328.79 320.78 328.64C321.5 328.49 322.24 328.17 323 327.67C323.76 327.17 324.52 326.42 325.27 325.43C326.02 324.44 326.69 323.11 327.27 321.43C327.85 319.75 328.32 317.68 328.69 315.19C329.05 312.71 329.24 309.71 329.24 306.2C329.24 303.12 329.1 300.45 328.83 298.17C328.56 295.89 328.2 293.94 327.75 292.33C327.3 290.71 326.79 289.39 326.21 288.35C325.63 287.31 325.03 286.49 324.4 285.89C323.77 285.29 323.15 284.87 322.52 284.64C321.89 284.41 321.32 284.3 320.79 284.3C319.97 284.3 319.24 284.49 318.6 284.88C317.96 285.27 317.43 285.79 316.99 286.44C316.56 287.09 316.23 287.83 316 288.66C315.76 289.5 315.65 290.34 315.65 291.21ZM377.41 328.47C377.41 328.77 377.36 329.12 377.27 329.53C377.18 329.94 376.96 330.33 376.6 330.69C376.25 331.06 375.72 331.37 375.01 331.63C374.3 331.89 373.35 332.02 372.14 332.02C370.93 332.02 369.98 331.88 369.29 331.59C368.59 331.31 368.07 330.97 367.72 330.58C367.37 330.19 367.14 329.79 367.05 329.38C366.96 328.97 366.91 328.64 366.91 328.39V304.22C366.91 303.9 366.86 303.58 366.77 303.25C366.68 302.92 366.54 302.62 366.36 302.34C366.18 302.07 365.95 301.84 365.68 301.67C365.41 301.5 365.09 301.41 364.72 301.41C364.1 301.41 363.5 301.59 362.91 301.94C362.32 302.29 361.76 302.7 361.25 303.15C360.74 303.61 360.29 304.06 359.92 304.52C359.54 304.98 359.28 305.32 359.12 305.55V328.45C359.12 328.75 359.07 329.1 358.98 329.51C358.89 329.92 358.67 330.31 358.31 330.67C357.96 331.04 357.43 331.35 356.74 331.61C356.04 331.87 355.09 332 353.89 332C352.68 332 351.73 331.86 351.04 331.57C350.34 331.29 349.82 330.95 349.45 330.56C349.08 330.17 348.86 329.77 348.77 329.36C348.68 328.95 348.63 328.62 348.63 328.37V301.98C348.63 301.32 348.48 300.74 348.17 300.25C347.86 299.76 347.34 299.52 346.62 299.52C346.23 299.52 345.9 299.59 345.63 299.73C345.36 299.87 345.06 300.06 344.74 300.31L344.02 299.46C344.54 299.03 345.13 298.6 345.78 298.18C346.43 297.76 347.13 297.39 347.88 297.07C348.63 296.75 349.44 296.49 350.31 296.28C351.18 296.07 352.09 295.97 353.04 295.97C354.52 295.97 355.67 296.22 356.49 296.7C357.31 297.19 357.91 297.78 358.3 298.46C358.69 299.14 358.92 299.86 359 300.6C359.08 301.34 359.12 301.96 359.12 302.46C360.19 301.25 361.34 300.17 362.57 299.21C363.07 298.8 363.62 298.4 364.23 298.01C364.83 297.62 365.45 297.28 366.09 296.97C366.73 296.66 367.39 296.42 368.07 296.24C368.75 296.06 369.44 295.97 370.12 295.97C371.44 295.97 372.57 296.21 373.5 296.69C374.43 297.17 375.19 297.74 375.76 298.42C376.33 299.09 376.75 299.8 377.01 300.54C377.27 301.28 377.4 301.92 377.4 302.47C378.49 301.26 379.64 300.18 380.85 299.22C381.35 298.81 381.9 298.41 382.49 298.02C383.08 297.63 383.7 297.29 384.35 296.98C385 296.67 385.66 296.43 386.33 296.25C387 296.07 387.68 295.98 388.36 295.98C389.68 295.98 390.81 296.23 391.74 296.71C392.67 297.2 393.43 297.84 394 298.64C394.57 299.44 394.99 300.34 395.25 301.34C395.51 302.34 395.64 303.35 395.64 304.35V325.51C395.64 325.72 395.65 325.94 395.67 326.18C395.69 326.42 395.75 326.65 395.84 326.86C395.93 327.08 396.07 327.25 396.27 327.39C396.47 327.53 396.72 327.6 397.04 327.6C397.47 327.6 397.86 327.45 398.2 327.14C398.54 326.83 398.86 326.52 399.16 326.2L399.98 326.92C399.66 327.4 399.24 327.93 398.72 328.51C398.2 329.09 397.57 329.64 396.86 330.17C396.14 330.69 395.31 331.13 394.36 331.49C393.41 331.84 392.35 332.02 391.16 332.02C390.16 332.02 389.28 331.89 388.54 331.63C387.8 331.37 387.17 331.01 386.66 330.57C386.15 330.13 385.76 329.6 385.51 329C385.26 328.4 385.13 327.75 385.13 327.07V304.24C385.13 303.92 385.08 303.6 384.99 303.27C384.9 302.94 384.77 302.64 384.6 302.36C384.43 302.09 384.21 301.86 383.93 301.69C383.65 301.52 383.34 301.43 382.97 301.43C382.35 301.43 381.74 301.61 381.14 301.96C380.54 302.31 379.98 302.72 379.47 303.17C378.96 303.63 378.52 304.08 378.15 304.54C377.78 305 377.52 305.34 377.36 305.57V328.47H377.41ZM404.58 326.28C404.58 325.48 404.73 324.73 405.02 324.02C405.32 323.31 405.72 322.7 406.23 322.17C406.74 321.65 407.35 321.23 408.06 320.92C408.77 320.61 409.52 320.46 410.32 320.46C411.12 320.46 411.87 320.61 412.58 320.92C413.29 321.23 413.9 321.64 414.43 322.17C414.95 322.69 415.37 323.31 415.68 324.02C415.99 324.73 416.14 325.48 416.14 326.28C416.14 327.1 415.99 327.86 415.68 328.55C415.37 329.25 414.96 329.85 414.43 330.36C413.91 330.87 413.29 331.28 412.58 331.57C411.87 331.87 411.12 332.01 410.32 332.01C409.52 332.01 408.77 331.86 408.06 331.57C407.35 331.27 406.74 330.87 406.23 330.36C405.72 329.85 405.31 329.24 405.02 328.55C404.73 327.86 404.58 327.1 404.58 326.28ZM434.56 298.8C433.78 298.8 433.07 298.89 432.41 299.07C431.75 299.25 431.18 299.48 430.7 299.75C430.22 300.02 429.85 300.33 429.57 300.66C429.3 300.99 429.16 301.3 429.16 301.6C429.16 301.94 429.34 302.19 429.69 302.33C430.04 302.48 430.44 302.65 430.87 302.84C431.3 303.03 431.7 303.31 432.05 303.66C432.4 304.01 432.58 304.55 432.58 305.28C432.58 305.76 432.48 306.2 432.29 306.6C432.1 307 431.83 307.35 431.5 307.66C431.17 307.97 430.78 308.21 430.34 308.38C429.89 308.55 429.43 308.64 428.96 308.64C427.68 308.64 426.65 308.21 425.87 307.34C425.08 306.47 424.69 305.32 424.69 303.89C424.69 302.5 425.05 301.31 425.78 300.32C426.51 299.33 427.46 298.51 428.63 297.88C429.8 297.24 431.13 296.77 432.61 296.46C434.09 296.15 435.57 296 437.05 296C438.83 296 440.52 296.19 442.14 296.58C443.76 296.97 445.19 297.58 446.43 298.43C447.67 299.27 448.66 300.34 449.4 301.64C450.14 302.94 450.51 304.51 450.51 306.36V325.67C450.51 325.88 450.52 326.1 450.54 326.35C450.56 326.6 450.62 326.83 450.71 327.03C450.8 327.24 450.94 327.41 451.12 327.54C451.3 327.68 451.56 327.75 451.91 327.75C452.32 327.75 452.7 327.6 453.05 327.29C453.4 326.98 453.72 326.67 453.99 326.35L454.84 327.07C454.5 327.55 454.09 328.07 453.61 328.64C453.13 329.21 452.55 329.75 451.87 330.25C451.19 330.75 450.39 331.17 449.48 331.51C448.57 331.85 447.53 332.02 446.37 332.02C444.93 332.02 443.66 331.59 442.54 330.74C441.42 329.88 440.69 328.57 440.35 326.79C439.62 327.77 438.86 328.59 438.08 329.25C437.29 329.91 436.49 330.45 435.67 330.86C434.85 331.27 434.02 331.57 433.19 331.75C432.36 331.93 431.52 332.02 430.68 332.02C429.59 332.02 428.53 331.85 427.5 331.51C426.47 331.17 425.56 330.63 424.75 329.89C423.94 329.15 423.29 328.19 422.8 327C422.31 325.82 422.06 324.37 422.06 322.66C422.06 320.59 422.47 318.89 423.29 317.57C424.11 316.25 425.19 315.14 426.52 314.24C427.85 313.34 429.37 312.57 431.07 311.93C432.77 311.29 434.5 310.62 436.28 309.91C437.6 309.39 438.56 308.61 439.17 307.57C439.77 306.53 440.08 305.47 440.08 304.37C440.08 302.68 439.58 301.33 438.59 300.32C437.62 299.31 436.27 298.8 434.56 298.8ZM439.99 313.77C439.99 313.2 439.81 312.77 439.44 312.47C439.07 312.17 438.61 312.03 438.04 312.03C437.24 312.03 436.49 312.21 435.77 312.58C435.05 312.94 434.42 313.48 433.87 314.19C433.32 314.9 432.89 315.77 432.57 316.81C432.25 317.85 432.09 319.05 432.09 320.42C432.09 321.74 432.19 322.84 432.38 323.7C432.57 324.57 432.84 325.25 433.17 325.77C433.5 326.28 433.88 326.64 434.32 326.85C434.75 327.06 435.21 327.16 435.69 327.16C436.28 327.16 436.84 327.01 437.36 326.7C437.88 326.39 438.34 326 438.73 325.52C439.12 325.04 439.42 324.51 439.65 323.91C439.88 323.32 439.99 322.73 439.99 322.13V313.77ZM470.38 328.4C470.38 328.7 470.33 329.06 470.23 329.48C470.13 329.9 469.89 330.3 469.51 330.68C469.13 331.06 468.59 331.38 467.89 331.64C467.18 331.9 466.23 332.03 465.02 332.03C463.81 332.03 462.87 331.89 462.18 331.6C461.5 331.32 460.98 330.98 460.64 330.59C460.3 330.2 460.09 329.8 460.01 329.39C459.93 328.98 459.89 328.65 459.89 328.4V302.01C459.89 301.35 459.74 300.77 459.43 300.28C459.12 299.79 458.6 299.55 457.88 299.55C457.49 299.55 457.16 299.62 456.89 299.76C456.62 299.9 456.32 300.09 456 300.34L455.28 299.49C455.8 299.06 456.39 298.63 457.04 298.21C457.69 297.79 458.39 297.42 459.14 297.1C459.89 296.78 460.7 296.52 461.57 296.31C462.44 296.1 463.35 296 464.3 296C465.78 296 466.93 296.2 467.75 296.6C468.57 297 469.17 297.49 469.56 298.07C469.95 298.65 470.18 299.27 470.26 299.93C470.34 300.59 470.38 301.17 470.38 301.67V328.4ZM458.83 288.2C458.83 287.56 458.97 286.95 459.26 286.37C459.54 285.79 459.94 285.28 460.46 284.85C460.97 284.42 461.57 284.08 462.24 283.82C462.91 283.57 463.65 283.44 464.45 283.44C465.22 283.44 465.95 283.57 466.62 283.82C467.29 284.07 467.88 284.41 468.38 284.85C468.88 285.28 469.27 285.79 469.56 286.37C469.85 286.95 469.99 287.56 469.99 288.2C469.99 288.86 469.85 289.48 469.56 290.05C469.27 290.62 468.88 291.12 468.38 291.54C467.88 291.96 467.29 292.3 466.62 292.55C465.95 292.8 465.22 292.93 464.45 292.93C463.65 292.93 462.92 292.8 462.24 292.55C461.57 292.3 460.98 291.96 460.46 291.54C459.95 291.12 459.55 290.62 459.26 290.05C458.97 289.48 458.83 288.86 458.83 288.2ZM263.21 79.57C256.41 81.59 248.88 81.69 242.37 78.87C235.47 75.88 229.75 69.8 225.03 63.94C224.29 73.79 229.59 83.62 237.66 89.32C245.73 95.02 256.2 96.8 265.96 95.21C275.71 93.62 284.77 88.87 292.43 82.63C289.14 77.99 285.77 73.38 282.48 68.74C276.96 73.18 270.01 77.54 263.21 79.57ZM252.7 51.26L238.92 65.04L252.7 78.82L266.48 65.04L252.7 51.26ZM176.97 94.28C180.46 100.32 183.94 106.36 187.43 112.39C194.64 106.41 203.21 102.65 212.53 101.69C214.99 101.44 217.59 101.4 219.81 102.48C223.18 104.12 224.97 108.2 224.42 111.91C223.88 115.61 221.29 118.83 218.05 120.69C214.81 122.56 210.97 123.2 207.23 123.13C203.49 123.06 199.8 122.31 196.13 121.57C197.86 129.29 200.68 136.77 204.9 143.46C208.24 143.4 211.47 142.7 214.75 143.3C218.03 143.91 221.27 145.24 223.63 147.61C228.04 152.05 228.4 159.58 225.27 165C222.14 170.42 216.14 173.78 209.96 174.77C199.27 176.48 188.21 171.59 180.73 163.76C173.25 155.93 168.97 145.52 166.62 134.95C166.92 147.22 167.93 159.55 173.31 170.58C178.7 181.61 187.88 191.15 199.5 195.11C211.12 199.07 225.15 196.66 233.54 187.69C238.84 182.03 241.57 174.26 241.98 166.51C242.39 158.76 240.61 151.02 237.81 143.79C242.22 144.66 246.88 145.36 251.05 143.67C254.79 142.16 257.45 138.86 259.95 135.7C263.48 131.23 267.01 126.76 270.54 122.28C273.23 118.87 276.41 115.18 280.74 114.76C284.42 114.4 288 116.68 290.03 119.77C292.06 122.86 292.79 126.63 293.05 130.32C293.53 137.13 292.53 144.16 289.3 150.17C286.07 156.18 280.44 161.06 273.78 162.53C267.12 164 259.54 161.68 255.5 156.18C253.49 153.44 252.42 150.14 251.39 146.9C249.91 153.82 248.87 160.6 250.73 167.43C252.6 174.26 257.01 180.6 263.37 183.7C271.1 187.47 280.76 185.9 287.85 181.04C294.95 176.18 299.7 168.45 302.44 160.3C308.29 142.9 305.09 122.3 292.79 108.67C287.78 103.12 280.84 98.63 273.38 99.04C268.3 99.32 263.53 101.86 259.8 105.33C256.07 108.79 253.27 113.13 250.77 117.57C248.68 121.28 246.75 125.12 244.06 128.43C241.37 131.73 237.77 134.51 233.58 135.26C229.39 136.02 224.6 134.35 222.55 130.62C227.26 125.21 231.5 119.5 233.63 112.65C235.76 105.8 235.51 97.95 231.68 91.88C228.08 86.18 221.65 82.62 214.98 81.59C208.32 80.56 201.46 81.85 195.17 84.26C188.88 86.67 182.72 90.77 176.97 94.28ZM235.98 232C178.17 232 131.14 184.97 131.14 127.16C131.14 69.35 178.17 22.32 235.98 22.32C293.79 22.32 340.82 69.35 340.82 127.16C340.82 184.96 293.79 232 235.98 232ZM235.98 25.83C180.11 25.83 134.66 71.28 134.66 127.15C134.66 183.02 180.11 228.47 235.98 228.47C291.85 228.47 337.3 183.02 337.3 127.15C337.3 71.28 291.84 25.83 235.98 25.83ZM245.85 15.16C245.03 13.48 243.65 12.18 242.54 11.23C242.18 10.92 241.81 10.62 241.44 10.32C240.55 9.6 239.71 8.92 238.97 8.13C237.11 6.16 235.97 3.6 235.75 0.95C235.7 0.42 235.25 0 234.71 0C234.17 0 233.72 0.42 233.67 0.96C233.45 3.61 232.31 6.17 230.45 8.14C229.71 8.93 228.87 9.61 227.98 10.33C227.61 10.63 227.24 10.93 226.88 11.24C225.77 12.18 224.39 13.48 223.57 15.17C222.76 16.83 221.61 21.55 223.45 24.8L224.95 23.95C223.43 21.27 224.56 17.07 225.12 15.92C225.8 14.52 227.02 13.39 228 12.55C228.35 12.25 228.71 11.96 229.07 11.67C229.96 10.95 230.88 10.2 231.7 9.33C233.06 7.9 234.08 6.19 234.71 4.35C235.34 6.19 236.36 7.9 237.72 9.33C238.54 10.2 239.46 10.95 240.35 11.67C240.71 11.96 241.07 12.25 241.42 12.55C242.4 13.38 243.62 14.52 244.3 15.92C244.86 17.07 245.99 21.27 244.47 23.95L245.97 24.8C247.81 21.54 246.66 16.81 245.85 15.16ZM235.29 13.11H234.11V23.53H235.29V13.11ZM234.71 11.04C233.96 11.04 233.36 11.65 233.36 12.39C233.36 13.14 233.97 13.74 234.71 13.74C235.45 13.74 236.06 13.13 236.06 12.39C236.06 11.65 235.46 11.04 234.71 11.04ZM249.71 4.69L248.54 4.6L247.12 24.04L248.29 24.13L249.71 4.69ZM249.32 1.96C248.43 1.89 247.65 2.56 247.59 3.46C247.52 4.35 248.19 5.13 249.09 5.19C249.98 5.25 250.76 4.58 250.82 3.69C250.88 2.8 250.21 2.02 249.32 1.96ZM273.46 21.15C273.08 19.32 272.07 17.71 271.23 16.52C270.96 16.13 270.67 15.75 270.39 15.37C269.71 14.45 269.07 13.58 268.54 12.64C267.23 10.27 266.76 7.5 267.21 4.88C267.3 4.34 266.97 3.83 266.44 3.7C265.91 3.56 265.38 3.86 265.2 4.37C264.32 6.88 262.58 9.08 260.29 10.52C259.37 11.1 258.39 11.55 257.35 12.02C256.92 12.22 256.49 12.42 256.06 12.62C254.75 13.26 253.09 14.17 251.87 15.6C250.67 17 248.38 21.29 249.35 24.9L251.01 24.45C250.21 21.48 252.35 17.69 253.18 16.72C254.19 15.54 255.65 14.74 256.81 14.18C257.23 13.98 257.65 13.79 258.07 13.59C259.11 13.11 260.19 12.62 261.2 11.98C262.87 10.93 264.29 9.53 265.36 7.91C265.51 9.85 266.08 11.76 267.03 13.48C267.61 14.53 268.32 15.48 269 16.4C269.27 16.77 269.55 17.14 269.82 17.52C270.56 18.57 271.46 19.98 271.77 21.5C272.03 22.75 272.07 27.1 269.94 29.32L271.18 30.52C273.77 27.83 273.83 22.96 273.46 21.15ZM263.75 16.55L262.61 16.26L260.01 26.35L261.15 26.64L263.75 16.55ZM263.7 14.39C262.98 14.2 262.24 14.64 262.05 15.36C261.86 16.08 262.3 16.82 263.02 17.01C263.74 17.2 264.48 16.76 264.67 16.04C264.86 15.32 264.42 14.58 263.7 14.39ZM279.81 11.98L278.7 11.6L272.48 30.07L273.59 30.45L279.81 11.98ZM280.11 9.24C279.26 8.95 278.34 9.41 278.06 10.26C277.77 11.11 278.23 12.03 279.08 12.31C279.93 12.6 280.85 12.14 281.13 11.29C281.41 10.44 280.96 9.52 280.11 9.24ZM298.7 33.85C298.79 31.98 298.21 30.17 297.69 28.81C297.52 28.37 297.34 27.93 297.17 27.49C296.74 26.43 296.34 25.43 296.06 24.38C295.38 21.76 295.62 18.96 296.7 16.54C296.92 16.04 296.73 15.46 296.25 15.2C295.77 14.94 295.18 15.09 294.88 15.54C293.4 17.75 291.17 19.45 288.59 20.27C287.56 20.6 286.5 20.79 285.37 20.99C284.9 21.07 284.43 21.16 283.97 21.25C282.54 21.54 280.7 22.01 279.17 23.09C277.66 24.15 274.37 27.73 274.41 31.47L276.13 31.45C276.1 28.37 279.11 25.24 280.16 24.5C281.43 23.61 283.05 23.2 284.31 22.94C284.76 22.85 285.22 22.77 285.67 22.68C286.8 22.48 287.97 22.27 289.11 21.9C290.99 21.3 292.71 20.3 294.15 18.99C293.82 20.9 293.89 22.89 294.38 24.8C294.68 25.96 295.13 27.06 295.56 28.12C295.73 28.55 295.91 28.98 296.07 29.41C296.53 30.62 297.04 32.2 296.97 33.75C296.91 35.02 295.87 39.25 293.25 40.86L294.15 42.33C297.34 40.39 298.61 35.69 298.7 33.85ZM290.44 26.96L289.41 26.39L284.38 35.51L285.41 36.08L290.44 26.96ZM290.93 24.86C290.28 24.5 289.45 24.74 289.09 25.39C288.73 26.04 288.97 26.87 289.62 27.23C290.27 27.59 291.1 27.35 291.46 26.7C291.83 26.05 291.59 25.22 290.93 24.86ZM307.14 26.54L306.15 25.9L295.52 42.24L296.51 42.88L307.14 26.54ZM308.11 23.96C307.36 23.47 306.36 23.68 305.87 24.43C305.38 25.18 305.59 26.18 306.34 26.67C307.09 27.16 308.09 26.95 308.58 26.2C309.08 25.45 308.86 24.45 308.11 23.96ZM319.98 52.43C320.54 50.64 320.42 48.75 320.26 47.3C320.21 46.83 320.15 46.36 320.08 45.89C319.93 44.76 319.79 43.69 319.78 42.6C319.77 39.89 320.71 37.24 322.36 35.16C322.7 34.73 322.66 34.13 322.26 33.75C321.87 33.38 321.25 33.37 320.85 33.74C318.87 35.51 316.29 36.6 313.58 36.75C312.5 36.81 311.42 36.73 310.28 36.65C309.81 36.61 309.33 36.58 308.86 36.56C307.4 36.49 305.51 36.48 303.76 37.14C302.03 37.79 297.95 40.44 297.06 44.06L298.73 44.47C299.46 41.48 303.17 39.2 304.36 38.75C305.81 38.2 307.48 38.21 308.77 38.27C309.23 38.29 309.69 38.33 310.15 38.36C311.3 38.44 312.48 38.53 313.67 38.46C315.64 38.35 317.56 37.8 319.28 36.9C318.48 38.67 318.05 40.61 318.05 42.59C318.05 43.79 318.21 44.96 318.36 46.1C318.42 46.56 318.48 47.02 318.53 47.48C318.67 48.76 318.78 50.42 318.32 51.91C317.94 53.13 315.88 56.96 312.94 57.87L313.45 59.52C317.04 58.42 319.44 54.19 319.98 52.43ZM313.7 43.71L312.84 42.9L305.69 50.48L306.55 51.29L313.7 43.71ZM314.7 41.79C314.16 41.28 313.3 41.3 312.79 41.85C312.28 42.4 312.3 43.25 312.85 43.76C313.39 44.27 314.25 44.25 314.76 43.7C315.27 43.15 315.25 42.31 314.7 41.79ZM329.98 47.46L329.19 46.59L314.83 59.76L315.62 60.63L329.98 47.46ZM331.56 45.21C330.96 44.55 329.93 44.51 329.27 45.11C328.61 45.71 328.57 46.74 329.17 47.4C329.77 48.06 330.8 48.1 331.46 47.5C332.12 46.89 332.17 45.87 331.56 45.21ZM335.96 75.74C336.94 74.15 337.31 72.29 337.51 70.84C337.58 70.37 337.63 69.9 337.69 69.43C337.83 68.29 337.95 67.22 338.22 66.17C338.89 63.54 340.45 61.21 342.57 59.61C343 59.28 343.12 58.68 342.83 58.22C342.54 57.76 341.95 57.6 341.47 57.85C339.11 59.07 336.34 59.48 333.68 58.95C332.62 58.74 331.6 58.39 330.51 58.03C330.06 57.88 329.61 57.73 329.16 57.58C327.77 57.14 325.93 56.67 324.07 56.87C322.24 57.07 317.62 58.61 315.86 61.91L317.38 62.73C318.84 60.02 322.99 58.73 324.26 58.59C325.8 58.42 327.42 58.84 328.65 59.23C329.09 59.37 329.53 59.52 329.97 59.66C331.06 60.03 332.18 60.41 333.36 60.64C335.3 61.02 337.29 60.97 339.18 60.53C337.96 62.04 337.06 63.82 336.57 65.73C336.27 66.89 336.13 68.07 336 69.21C335.94 69.67 335.89 70.13 335.82 70.59C335.64 71.87 335.32 73.5 334.51 74.82C333.84 75.91 330.89 79.1 327.81 79.25L327.89 80.97C331.61 80.8 334.99 77.3 335.96 75.74ZM332.05 65.72L331.42 64.73L322.61 70.29L323.24 71.28L332.05 65.72ZM333.5 64.12C333.1 63.49 332.26 63.3 331.63 63.7C331 64.1 330.81 64.94 331.21 65.57C331.61 66.2 332.45 66.39 333.08 65.99C333.71 65.59 333.89 64.75 333.5 64.12ZM346.88 73.41L346.33 72.37L329.14 81.54L329.69 82.58L346.88 73.41ZM348.97 71.63C348.55 70.84 347.57 70.54 346.78 70.96C345.99 71.38 345.69 72.36 346.11 73.15C346.53 73.94 347.51 74.24 348.3 73.82C349.1 73.4 349.4 72.42 348.97 71.63ZM345.62 102.29C346.97 100.99 347.79 99.28 348.34 97.93C348.52 97.49 348.69 97.05 348.87 96.61C349.29 95.54 349.68 94.54 350.2 93.59C351.5 91.21 353.6 89.35 356.05 88.32C356.55 88.11 356.81 87.56 356.64 87.04C356.47 86.52 355.94 86.22 355.41 86.35C352.82 86.95 350.03 86.65 347.59 85.48C346.61 85.01 345.71 84.42 344.75 83.8C344.35 83.54 343.95 83.28 343.55 83.03C342.31 82.26 340.65 81.34 338.8 81.08C336.98 80.82 332.12 81.16 329.59 83.91L330.86 85.08C332.95 82.82 337.29 82.61 338.56 82.79C340.1 83.01 341.55 83.82 342.65 84.5C343.04 84.74 343.43 85 343.82 85.25C344.78 85.88 345.78 86.53 346.85 87.04C348.63 87.89 350.57 88.34 352.51 88.38C350.96 89.54 349.64 91.04 348.69 92.77C348.12 93.82 347.68 94.92 347.27 95.99C347.1 96.42 346.93 96.85 346.76 97.28C346.27 98.47 345.55 99.98 344.43 101.05C343.51 101.93 339.85 104.3 336.84 103.67L336.49 105.36C340.15 106.11 344.29 103.56 345.62 102.29ZM344.34 91.61L343.98 90.49L334.06 93.68L334.42 94.8L344.34 91.61ZM346.13 90.42C345.9 89.71 345.14 89.32 344.43 89.55C343.72 89.78 343.33 90.54 343.56 91.25C343.79 91.96 344.55 92.35 345.26 92.12C345.97 91.9 346.36 91.13 346.13 90.42ZM356.77 102.76L356.49 101.62L337.55 106.22L337.83 107.36L356.77 102.76ZM359.25 101.55C359.04 100.68 358.16 100.15 357.3 100.36C356.44 100.57 355.9 101.45 356.11 102.31C356.32 103.18 357.2 103.71 358.06 103.5C358.92 103.29 359.46 102.42 359.25 101.55ZM348.36 130.41C349.99 129.49 351.21 128.04 352.08 126.87C352.37 126.49 352.64 126.11 352.92 125.72C353.59 124.79 354.22 123.91 354.96 123.13C356.82 121.15 359.31 119.87 361.94 119.49C362.48 119.41 362.87 118.94 362.83 118.4C362.8 117.86 362.36 117.44 361.81 117.42C359.15 117.35 356.53 116.37 354.45 114.62C353.62 113.92 352.89 113.13 352.12 112.28C351.8 111.93 351.48 111.58 351.15 111.24C350.14 110.19 348.76 108.88 347.04 108.16C345.34 107.45 340.55 106.57 337.42 108.6L338.35 110.05C340.94 108.38 345.2 109.26 346.37 109.75C347.8 110.35 349.01 111.5 349.9 112.43C350.22 112.76 350.53 113.11 350.84 113.45C351.62 114.3 352.42 115.17 353.33 115.94C354.84 117.21 356.61 118.13 358.48 118.65C356.68 119.39 355.04 120.51 353.69 121.95C352.87 122.82 352.18 123.79 351.51 124.72C351.24 125.1 350.97 125.47 350.69 125.84C349.91 126.87 348.85 128.15 347.5 128.91C346.39 129.54 342.26 130.91 339.5 129.56L338.74 131.11C342.1 132.75 346.75 131.31 348.36 130.41ZM349.78 119.75L349.71 118.58L339.31 119.19L339.38 120.36L349.78 119.75ZM351.81 119.04C351.77 118.29 351.12 117.72 350.38 117.77C349.63 117.81 349.06 118.46 349.11 119.2C349.16 119.94 349.8 120.52 350.54 120.47C351.29 120.43 351.86 119.79 351.81 119.04ZM359.04 133.65L359.06 132.47L339.57 132.2L339.55 133.38L359.04 133.65ZM361.74 133.1C361.75 132.21 361.04 131.47 360.14 131.46C359.25 131.45 358.51 132.16 358.5 133.06C358.49 133.95 359.2 134.69 360.1 134.7C360.99 134.7 361.73 133.99 361.74 133.1ZM344 158.32C345.81 157.84 347.35 156.73 348.49 155.82C348.86 155.52 349.23 155.22 349.59 154.92C350.47 154.19 351.3 153.5 352.21 152.92C354.5 151.47 357.23 150.85 359.88 151.13C360.42 151.19 360.91 150.83 361.02 150.3C361.12 149.77 360.8 149.25 360.28 149.1C357.73 148.37 355.43 146.77 353.85 144.56C353.22 143.68 352.71 142.73 352.18 141.72C351.96 141.3 351.73 140.88 351.5 140.47C350.79 139.2 349.78 137.59 348.28 136.46C346.81 135.35 342.39 133.31 338.85 134.49L339.39 136.12C342.31 135.15 346.22 137.06 347.24 137.83C348.48 138.77 349.36 140.18 349.99 141.3C350.22 141.7 350.43 142.11 350.65 142.52C351.19 143.53 351.75 144.58 352.44 145.55C353.59 147.16 355.07 148.49 356.75 149.46C354.83 149.73 352.95 150.4 351.29 151.46C350.28 152.1 349.37 152.86 348.49 153.6C348.14 153.9 347.78 154.19 347.42 154.48C346.41 155.28 345.06 156.26 343.56 156.66C342.33 156.99 337.99 157.29 335.65 155.29L334.53 156.6C337.36 159.03 342.22 158.8 344 158.32ZM348.03 148.36L348.26 147.21L338.04 145.21L337.81 146.36L348.03 148.36ZM350.17 148.18C350.31 147.45 349.83 146.73 349.1 146.59C348.37 146.45 347.65 146.93 347.51 147.66C347.37 148.39 347.85 149.11 348.58 149.25C349.32 149.39 350.03 148.91 350.17 148.18ZM353.53 164.12L353.84 162.99L335.04 157.87L334.73 159L353.53 164.12ZM356.29 164.26C356.52 163.4 356.02 162.51 355.15 162.27C354.29 162.04 353.4 162.54 353.16 163.41C352.93 164.27 353.43 165.16 354.3 165.4C355.16 165.63 356.05 165.12 356.29 164.26ZM332.81 184.27C334.68 184.25 336.45 183.57 337.78 182.97C338.21 182.78 338.64 182.57 339.07 182.37C340.1 181.88 341.08 181.42 342.11 181.08C344.69 180.25 347.49 180.32 349.98 181.26C350.49 181.45 351.06 181.23 351.29 180.74C351.52 180.25 351.34 179.67 350.87 179.39C348.58 178.05 346.75 175.92 345.78 173.39C345.39 172.38 345.14 171.33 344.87 170.22C344.76 169.76 344.65 169.3 344.52 168.84C344.15 167.43 343.57 165.62 342.4 164.16C341.25 162.72 337.48 159.64 333.76 159.9L333.88 161.62C336.95 161.4 340.26 164.23 341.05 165.23C342.02 166.45 342.52 168.03 342.85 169.28C342.97 169.73 343.08 170.18 343.19 170.63C343.46 171.75 343.74 172.9 344.17 174.02C344.88 175.86 345.98 177.52 347.37 178.88C345.44 178.66 343.46 178.85 341.58 179.45C340.44 179.82 339.37 180.33 338.33 180.82C337.91 181.02 337.49 181.22 337.07 181.41C335.89 181.94 334.34 182.55 332.79 182.56C331.51 182.57 327.23 181.78 325.47 179.26L324.06 180.25C326.21 183.3 330.97 184.29 332.81 184.27ZM339.2 175.62L339.71 174.56L330.31 170.08L329.8 171.14L339.2 175.62ZM341.33 175.99C341.65 175.31 341.37 174.51 340.69 174.18C340.01 173.86 339.21 174.14 338.88 174.82C338.56 175.5 338.84 176.3 339.52 176.63C340.2 176.95 341 176.66 341.33 175.99ZM340.6 192.26L341.18 191.24L324.25 181.59L323.67 182.61L340.6 192.26ZM343.23 193.09C343.67 192.31 343.4 191.32 342.62 190.88C341.84 190.44 340.85 190.71 340.41 191.49C339.97 192.27 340.24 193.26 341.02 193.7C341.8 194.13 342.79 193.86 343.23 193.09ZM315.52 206.61C317.34 207.06 319.22 206.84 320.66 206.59C321.13 206.51 321.59 206.42 322.06 206.33C323.18 206.11 324.24 205.91 325.32 205.84C328.03 205.67 330.72 206.45 332.9 207.98C333.34 208.29 333.95 208.22 334.3 207.8C334.65 207.38 334.62 206.77 334.23 206.39C332.34 204.52 331.11 202 330.79 199.31C330.66 198.24 330.68 197.16 330.7 196.01C330.71 195.53 330.71 195.06 330.71 194.58C330.7 193.12 330.59 191.23 329.83 189.52C329.08 187.84 326.2 183.92 322.52 183.24L322.21 184.93C325.24 185.49 327.74 189.05 328.25 190.22C328.88 191.64 328.97 193.3 328.98 194.59C328.98 195.05 328.98 195.51 328.97 195.98C328.95 197.13 328.94 198.32 329.07 199.5C329.3 201.46 329.95 203.34 330.96 205C329.15 204.31 327.18 203.99 325.21 204.11C324.02 204.18 322.85 204.41 321.72 204.63C321.27 204.72 320.81 204.81 320.36 204.88C319.09 205.1 317.44 205.3 315.93 204.93C314.69 204.62 310.74 202.79 309.66 199.91L308.05 200.51C309.36 204.02 313.73 206.17 315.52 206.61ZM323.86 199.83L324.61 198.93L316.62 192.24L315.87 193.14L323.86 199.83ZM325.82 200.71C326.3 200.14 326.22 199.28 325.65 198.8C325.08 198.32 324.22 198.4 323.74 198.97C323.26 199.54 323.34 200.4 323.91 200.88C324.49 201.36 325.34 201.28 325.82 200.71ZM321.07 216.29L321.89 215.45L307.9 201.89L307.08 202.73L321.07 216.29ZM323.41 217.74C324.03 217.1 324.02 216.07 323.37 215.45C322.73 214.83 321.7 214.84 321.08 215.49C320.46 216.13 320.47 217.16 321.12 217.78C321.77 218.4 322.79 218.39 323.41 217.74ZM293.19 223.93C294.84 224.82 296.72 225.07 298.17 225.19C298.64 225.23 299.12 225.26 299.59 225.29C300.73 225.36 301.81 225.42 302.87 225.63C305.53 226.14 307.95 227.57 309.67 229.59C310.02 230 310.63 230.08 311.07 229.76C311.51 229.44 311.63 228.84 311.36 228.38C310 226.1 309.43 223.35 309.8 220.67C309.95 219.6 310.23 218.56 310.53 217.45C310.66 216.99 310.78 216.53 310.9 216.07C311.25 214.66 311.62 212.79 311.31 210.95C311 209.13 309.19 204.62 305.8 203.05L305.08 204.61C307.87 205.9 309.4 209.98 309.62 211.24C309.88 212.77 309.55 214.4 309.24 215.66C309.13 216.11 309.01 216.55 308.88 217C308.58 218.11 308.26 219.25 308.1 220.44C307.83 222.4 308 224.38 308.55 226.24C306.97 225.12 305.14 224.32 303.2 223.95C302.03 223.72 300.84 223.65 299.69 223.58C299.23 223.55 298.77 223.52 298.31 223.49C297.02 223.38 295.37 223.17 294.01 222.43C292.89 221.82 289.52 219.07 289.19 216.01L287.48 216.19C287.88 219.89 291.57 223.06 293.19 223.93ZM302.96 219.44L303.92 218.76L297.85 210.29L296.89 210.97L302.96 219.44ZM304.65 220.79C305.26 220.35 305.4 219.51 304.96 218.9C304.52 218.29 303.68 218.15 303.07 218.59C302.46 219.03 302.32 219.87 302.76 220.48C303.19 221.08 304.04 221.22 304.65 220.79ZM296.16 234.69L297.16 234.08L286.99 217.46L285.99 218.07L296.16 234.69ZM298.06 236.68C298.82 236.21 299.06 235.22 298.6 234.45C298.13 233.69 297.14 233.45 296.37 233.91C295.61 234.38 295.37 235.37 295.83 236.14C296.29 236.91 297.3 237.15 298.06 236.68ZM267.26 235.14C268.64 236.41 270.39 237.12 271.77 237.6C272.22 237.76 272.67 237.9 273.12 238.05C274.21 238.4 275.24 238.73 276.21 239.2C278.66 240.36 280.65 242.34 281.81 244.73C282.05 245.22 282.62 245.44 283.12 245.25C283.63 245.05 283.89 244.5 283.74 243.98C282.99 241.43 283.13 238.63 284.15 236.12C284.56 235.12 285.09 234.18 285.66 233.19C285.9 232.78 286.13 232.36 286.36 231.95C287.05 230.67 287.87 228.96 288.03 227.09C288.19 225.25 287.55 220.43 284.66 218.06L283.57 219.39C285.95 221.34 286.42 225.67 286.31 226.94C286.18 228.49 285.46 229.99 284.84 231.12C284.62 231.53 284.39 231.93 284.16 232.33C283.59 233.33 283 234.36 282.55 235.46C281.8 237.29 281.47 239.25 281.54 241.19C280.29 239.71 278.72 238.48 276.93 237.64C275.85 237.13 274.72 236.76 273.63 236.41C273.19 236.27 272.75 236.13 272.31 235.97C271.09 235.55 269.55 234.93 268.41 233.87C267.47 233 264.9 229.49 265.35 226.45L263.65 226.2C263.12 229.9 265.9 233.89 267.26 235.14ZM277.84 233.23L278.94 232.81L275.17 223.1L274.07 223.52L277.84 233.23ZM279.13 234.95C279.83 234.68 280.17 233.9 279.9 233.2C279.63 232.5 278.85 232.16 278.15 232.43C277.45 232.7 277.11 233.48 277.38 234.18C277.65 234.88 278.44 235.22 279.13 234.95ZM267.44 246.3L268.56 245.96L262.86 227.32L261.74 227.66L267.44 246.3ZM268.79 248.7C269.64 248.44 270.13 247.53 269.86 246.68C269.6 245.83 268.69 245.34 267.84 245.61C266.99 245.87 266.5 246.78 266.77 247.63C267.03 248.48 267.94 248.96 268.79 248.7ZM239.35 239.53C240.36 241.1 241.89 242.23 243.1 243.04C243.5 243.3 243.9 243.56 244.3 243.81C245.27 244.42 246.18 245 247.01 245.69C249.09 247.43 250.52 249.84 251.06 252.44C251.17 252.97 251.66 253.33 252.2 253.27C252.74 253.21 253.13 252.74 253.12 252.2C253.03 249.54 253.86 246.87 255.48 244.69C256.13 243.82 256.88 243.05 257.67 242.23C258 241.89 258.33 241.55 258.66 241.2C259.65 240.13 260.87 238.68 261.49 236.91C262.1 235.17 262.69 230.34 260.48 227.33L259.09 228.35C260.91 230.83 260.28 235.14 259.86 236.34C259.35 237.81 258.27 239.08 257.4 240.02C257.09 240.36 256.76 240.69 256.44 241.02C255.64 241.84 254.81 242.7 254.1 243.65C252.92 245.23 252.11 247.05 251.7 248.95C250.86 247.2 249.64 245.62 248.12 244.36C247.2 243.6 246.2 242.96 245.23 242.35C244.84 242.1 244.45 241.86 244.06 241.6C242.99 240.89 241.64 239.9 240.8 238.59C240.11 237.52 238.49 233.48 239.68 230.64L238.09 229.97C236.64 233.42 238.35 237.98 239.35 239.53ZM250.07 240.32L251.24 240.18L250.01 229.84L248.84 229.98L250.07 240.32ZM250.89 242.31C251.63 242.22 252.16 241.55 252.08 240.81C251.99 240.07 251.32 239.54 250.58 239.62C249.84 239.71 249.31 240.38 249.39 241.12C249.48 241.86 250.15 242.4 250.89 242.31ZM236.74 250.38L237.91 250.33L237.03 230.86L235.86 230.91L236.74 250.38ZM237.45 253.05C238.34 253.01 239.03 252.25 238.99 251.36C238.95 250.47 238.19 249.78 237.3 249.82C236.41 249.86 235.72 250.62 235.76 251.51C235.8 252.39 236.56 253.09 237.45 253.05ZM211.22 236.82C211.81 238.6 213 240.07 213.98 241.15C214.3 241.5 214.62 241.85 214.95 242.19C215.73 243.02 216.47 243.81 217.11 244.69C218.69 246.89 219.48 249.58 219.35 252.24C219.32 252.78 219.71 253.25 220.25 253.33C220.79 253.4 221.29 253.05 221.41 252.52C221.99 249.93 223.46 247.54 225.57 245.84C226.41 245.16 227.33 244.6 228.31 244C228.72 243.75 229.12 243.5 229.52 243.25C230.75 242.46 232.29 241.36 233.33 239.8C234.35 238.27 236.13 233.74 234.74 230.27L233.14 230.91C234.28 233.77 232.6 237.78 231.89 238.84C231.03 240.13 229.67 241.1 228.58 241.79C228.19 242.04 227.8 242.28 227.4 242.52C226.42 243.12 225.41 243.74 224.48 244.49C222.94 245.73 221.7 247.29 220.83 249.02C220.45 247.12 219.67 245.28 218.51 243.68C217.81 242.71 217 241.84 216.21 241.01C215.89 240.67 215.58 240.34 215.27 239.99C214.41 239.03 213.35 237.74 212.87 236.27C212.47 235.06 211.91 230.74 213.77 228.29L212.4 227.25C210.13 230.23 210.64 235.07 211.22 236.82ZM221.41 240.26L222.57 240.42L223.96 230.1L222.8 229.94L221.41 240.26ZM221.71 242.39C222.45 242.49 223.13 241.97 223.23 241.23C223.33 240.49 222.81 239.81 222.07 239.71C221.33 239.61 220.65 240.13 220.55 240.87C220.45 241.61 220.97 242.29 221.71 242.39ZM206 246.68L207.15 246.92L211.15 227.85L210 227.61L206 246.68ZM206.02 249.44C206.89 249.62 207.75 249.06 207.94 248.19C208.12 247.32 207.56 246.46 206.69 246.27C205.82 246.09 204.96 246.65 204.77 247.52C204.58 248.4 205.14 249.25 206.02 249.44ZM184.66 227.19C184.79 229.06 185.58 230.78 186.25 232.07C186.47 232.49 186.7 232.91 186.93 233.32C187.48 234.32 188 235.27 188.39 236.28C189.38 238.81 189.46 241.61 188.67 244.15C188.51 244.67 188.77 245.22 189.27 245.43C189.77 245.63 190.34 245.42 190.59 244.93C191.8 242.56 193.81 240.62 196.28 239.49C197.26 239.04 198.3 238.73 199.39 238.39C199.84 238.25 200.3 238.11 200.75 237.96C202.13 237.5 203.9 236.82 205.3 235.57C206.67 234.34 209.52 230.4 209.04 226.69L207.33 226.91C207.73 229.96 205.1 233.43 204.15 234.28C202.99 235.32 201.44 235.91 200.21 236.32C199.77 236.46 199.33 236.6 198.89 236.73C197.79 237.07 196.66 237.41 195.57 237.91C193.77 238.73 192.18 239.93 190.91 241.39C191.02 239.45 190.71 237.48 190 235.64C189.57 234.53 188.99 233.49 188.44 232.48C188.22 232.07 187.99 231.67 187.78 231.26C187.18 230.12 186.49 228.6 186.38 227.05C186.29 225.78 186.83 221.46 189.24 219.55L188.17 218.2C185.24 220.53 184.53 225.35 184.66 227.19ZM193.67 233.05L194.76 233.49L198.68 223.84L197.59 223.4L193.67 233.05ZM193.43 235.19C194.12 235.47 194.91 235.14 195.19 234.45C195.47 233.76 195.14 232.97 194.45 232.69C193.76 232.41 192.97 232.74 192.69 233.43C192.41 234.12 192.74 234.91 193.43 235.19ZM177.14 235.43L178.19 235.95L186.82 218.48L185.77 217.96L177.14 235.43ZM176.48 238.11C177.28 238.51 178.25 238.18 178.65 237.38C179.05 236.58 178.72 235.61 177.92 235.21C177.12 234.81 176.15 235.14 175.75 235.94C175.35 236.74 175.67 237.71 176.48 238.11ZM161.34 211.23C161 213.07 161.33 214.94 161.66 216.36C161.77 216.82 161.89 217.28 162 217.74C162.28 218.85 162.55 219.89 162.68 220.97C163 223.66 162.39 226.4 160.99 228.66C160.7 229.12 160.82 229.72 161.25 230.05C161.69 230.37 162.29 230.31 162.65 229.9C164.41 227.91 166.85 226.52 169.52 226.05C170.59 225.86 171.66 225.81 172.81 225.76C173.28 225.74 173.76 225.72 174.23 225.69C175.69 225.59 177.57 225.37 179.23 224.51C180.87 223.66 184.61 220.55 185.07 216.85L183.36 216.64C182.98 219.7 179.57 222.4 178.44 222.99C177.06 223.7 175.41 223.89 174.12 223.98C173.66 224.01 173.2 224.03 172.73 224.05C171.58 224.1 170.4 224.15 169.22 224.36C167.28 224.7 165.44 225.47 163.84 226.57C164.43 224.72 164.62 222.74 164.39 220.78C164.25 219.59 163.95 218.44 163.67 217.33C163.56 216.88 163.44 216.43 163.34 215.98C163.05 214.72 162.75 213.09 163.03 211.56C163.26 210.31 164.86 206.26 167.67 205.01L166.97 203.44C163.56 204.94 161.68 209.42 161.34 211.23ZM168.6 219.16L169.54 219.86L175.74 211.49L174.8 210.79L168.6 219.16ZM167.84 221.18C168.44 221.63 169.29 221.5 169.73 220.9C170.18 220.3 170.05 219.45 169.45 219.01C168.85 218.56 168 218.69 167.56 219.29C167.11 219.88 167.24 220.73 167.84 221.18ZM152 217.35L152.89 218.12L165.61 203.35L164.72 202.58L152 217.35ZM150.69 219.77C151.37 220.35 152.39 220.28 152.97 219.6C153.55 218.92 153.48 217.9 152.8 217.32C152.12 216.74 151.1 216.81 150.52 217.49C149.94 218.16 150.01 219.19 150.69 219.77ZM142.73 189.97C141.94 191.67 141.8 193.56 141.76 195.02C141.75 195.49 141.75 195.97 141.75 196.44C141.75 197.58 141.75 198.66 141.6 199.74C141.24 202.43 139.97 204.92 138.05 206.77C137.66 207.15 137.62 207.76 137.96 208.18C138.3 208.6 138.91 208.69 139.36 208.38C141.56 206.89 144.27 206.16 146.97 206.37C148.05 206.45 149.11 206.68 150.22 206.91C150.69 207.01 151.15 207.11 151.62 207.19C153.05 207.46 154.93 207.71 156.76 207.29C158.56 206.88 162.96 204.8 164.32 201.32L162.72 200.69C161.59 203.56 157.62 205.32 156.37 205.61C154.86 205.96 153.21 205.73 151.94 205.49C151.49 205.4 151.03 205.31 150.58 205.21C149.46 204.97 148.29 204.73 147.1 204.64C145.13 204.49 143.16 204.77 141.34 205.44C142.37 203.79 143.06 201.92 143.31 199.97C143.47 198.79 143.47 197.6 143.47 196.45C143.47 195.99 143.47 195.53 143.48 195.06C143.51 193.77 143.63 192.11 144.28 190.7C144.82 189.54 147.37 186.02 150.41 185.51L150.13 183.81C146.46 184.43 143.51 188.3 142.73 189.97ZM147.79 199.46L148.53 200.37L156.63 193.81L155.89 192.9L147.79 199.46ZM146.55 201.22C147.02 201.8 147.87 201.89 148.45 201.42C149.03 200.95 149.12 200.1 148.65 199.52C148.18 198.94 147.33 198.85 146.75 199.32C146.17 199.78 146.08 200.64 146.55 201.22ZM132.17 193.56L132.84 194.52L148.84 183.39L148.17 182.43L132.17 193.56ZM130.29 195.58C130.8 196.31 131.81 196.49 132.54 195.98C133.27 195.47 133.45 194.46 132.94 193.73C132.43 193 131.42 192.82 130.69 193.33C129.96 193.84 129.78 194.85 130.29 195.58ZM130.02 164.74C128.83 166.19 128.22 167.98 127.83 169.39C127.7 169.85 127.58 170.31 127.46 170.77C127.17 171.88 126.9 172.92 126.5 173.93C125.48 176.44 123.62 178.54 121.31 179.85C120.84 180.12 120.65 180.7 120.87 181.19C121.1 181.68 121.66 181.92 122.17 181.73C124.67 180.83 127.47 180.8 130.04 181.68C131.06 182.03 132.03 182.51 133.06 183.02C133.49 183.23 133.91 183.44 134.34 183.64C135.66 184.26 137.42 184.97 139.29 185.02C141.13 185.07 145.91 184.15 148.1 181.13L146.71 180.12C144.9 182.61 140.61 183.33 139.34 183.3C137.79 183.26 136.25 182.63 135.08 182.08C134.66 181.88 134.25 181.68 133.83 181.47C132.8 180.96 131.74 180.43 130.61 180.05C128.74 179.41 126.76 179.19 124.83 179.38C126.24 178.04 127.37 176.4 128.11 174.57C128.56 173.46 128.86 172.31 129.14 171.2C129.26 170.75 129.37 170.3 129.5 169.86C129.85 168.62 130.38 167.04 131.37 165.84C132.18 164.85 135.53 162.08 138.6 162.34L138.75 160.62C135 160.3 131.19 163.31 130.02 164.74ZM132.55 175.19L133.04 176.26L142.51 171.93L142.02 170.86L132.55 175.19ZM130.91 176.58C131.22 177.26 132.02 177.56 132.7 177.25C133.38 176.94 133.68 176.14 133.37 175.46C133.06 174.78 132.26 174.48 131.58 174.79C130.89 175.1 130.59 175.9 130.91 176.58ZM118.89 165.58L119.3 166.68L137.57 159.89L137.16 158.79L118.89 165.58ZM116.57 167.07C116.88 167.91 117.81 168.33 118.65 168.02C119.49 167.71 119.91 166.78 119.6 165.94C119.29 165.1 118.36 164.68 117.52 164.99C116.69 165.3 116.26 166.23 116.57 167.07ZM123.99 137.14C122.48 138.25 121.44 139.83 120.71 141.09C120.47 141.5 120.24 141.92 120.01 142.33C119.46 143.33 118.93 144.28 118.29 145.15C116.68 147.33 114.36 148.9 111.79 149.59C111.27 149.73 110.94 150.24 111.03 150.78C111.13 151.31 111.61 151.68 112.15 151.63C114.8 151.39 117.52 152.05 119.79 153.54C120.69 154.13 121.51 154.84 122.38 155.59C122.74 155.9 123.1 156.21 123.47 156.51C124.6 157.44 126.12 158.57 127.92 159.08C129.69 159.59 134.55 159.89 137.42 157.51L136.32 156.18C133.95 158.14 129.61 157.77 128.39 157.42C126.9 156.99 125.56 156 124.57 155.18C124.21 154.89 123.86 154.58 123.51 154.28C122.64 153.53 121.74 152.75 120.74 152.1C119.09 151.02 117.23 150.31 115.31 150.01C117.01 149.06 118.51 147.76 119.68 146.17C120.39 145.21 120.96 144.17 121.52 143.16C121.74 142.76 121.97 142.35 122.2 141.95C122.85 140.84 123.76 139.44 125.01 138.52C126.04 137.77 129.98 135.91 132.88 136.94L133.45 135.32C129.93 134.08 125.48 136.05 123.99 137.14ZM123.84 147.89L124.05 149.05L134.3 147.22L134.09 146.06L123.84 147.89ZM121.9 148.83C122.03 149.57 122.74 150.06 123.47 149.92C124.21 149.79 124.7 149.08 124.56 148.35C124.43 147.61 123.72 147.12 122.99 147.26C122.26 147.39 121.77 148.09 121.9 148.83ZM113 135.18L113.12 136.35L132.5 134.33L132.38 133.16L113 135.18ZM110.39 136.04C110.48 136.93 111.28 137.57 112.17 137.48C113.06 137.39 113.7 136.59 113.61 135.7C113.52 134.81 112.72 134.17 111.83 134.26C110.94 134.36 110.3 135.15 110.39 136.04ZM125.04 108.9C123.3 109.59 121.9 110.87 120.88 111.91C120.55 112.25 120.22 112.59 119.89 112.94C119.1 113.77 118.36 114.56 117.52 115.24C115.42 116.95 112.77 117.89 110.12 117.92C109.58 117.93 109.13 118.34 109.09 118.88C109.05 119.42 109.43 119.9 109.97 119.99C112.59 120.41 115.06 121.74 116.89 123.74C117.62 124.54 118.23 125.43 118.89 126.37C119.16 126.76 119.43 127.15 119.71 127.53C120.57 128.71 121.76 130.18 123.38 131.13C124.97 132.06 129.6 133.57 132.98 131.98L132.25 130.42C129.46 131.73 125.36 130.29 124.26 129.64C122.92 128.86 121.88 127.56 121.12 126.51C120.85 126.14 120.58 125.76 120.32 125.38C119.66 124.44 118.99 123.46 118.18 122.58C116.85 121.12 115.22 119.97 113.44 119.2C115.32 118.71 117.1 117.82 118.63 116.57C119.56 115.82 120.37 114.95 121.16 114.12C121.48 113.78 121.8 113.45 122.12 113.12C123.03 112.2 124.25 111.08 125.7 110.5C126.89 110.03 131.16 109.22 133.72 110.93L134.68 109.5C131.55 107.42 126.75 108.22 125.04 108.9ZM122.21 119.27L122.12 120.44L132.51 121.22L132.6 120.05L122.21 119.27ZM120.1 119.7C120.04 120.45 120.6 121.1 121.35 121.15C122.1 121.21 122.75 120.65 122.8 119.9C122.86 119.15 122.3 118.5 121.55 118.45C120.8 118.4 120.15 118.96 120.1 119.7ZM114.89 104.27L114.72 105.43L134 108.3L134.17 107.14L114.89 104.27ZM112.14 104.45C112.01 105.33 112.62 106.16 113.5 106.29C114.38 106.42 115.21 105.81 115.34 104.93C115.47 104.05 114.86 103.22 113.98 103.09C113.09 102.96 112.27 103.57 112.14 104.45ZM133.09 81.82C131.23 82.06 129.56 82.95 128.31 83.7C127.9 83.94 127.5 84.2 127.1 84.45C126.13 85.06 125.22 85.63 124.23 86.09C121.77 87.22 118.97 87.47 116.39 86.84C115.86 86.71 115.33 87 115.15 87.51C114.98 88.02 115.23 88.58 115.72 88.8C118.15 89.86 120.22 91.76 121.48 94.16C121.99 95.12 122.36 96.13 122.76 97.2C122.93 97.65 123.09 98.09 123.27 98.53C123.81 99.89 124.59 101.61 125.92 102.93C127.23 104.23 131.33 106.84 135 106.14L134.68 104.45C131.65 105.03 128.04 102.61 127.13 101.71C126.03 100.62 125.34 99.1 124.87 97.9C124.7 97.47 124.54 97.04 124.38 96.6C123.98 95.52 123.57 94.41 123.01 93.35C122.09 91.6 120.8 90.09 119.26 88.9C121.2 88.89 123.15 88.47 124.94 87.65C126.03 87.15 127.03 86.52 128 85.91C128.39 85.66 128.78 85.42 129.18 85.18C130.29 84.52 131.75 83.73 133.3 83.53C134.57 83.37 138.91 83.65 140.96 85.94L142.25 84.79C139.77 82.01 134.92 81.58 133.09 81.82ZM127.77 91.16L127.39 92.27L137.25 95.62L137.63 94.51L127.77 91.16ZM125.61 91.05C125.37 91.76 125.75 92.53 126.46 92.77C127.17 93.01 127.94 92.63 128.18 91.92C128.42 91.21 128.04 90.44 127.33 90.2C126.62 89.96 125.86 90.34 125.61 91.05ZM124.42 74.8L123.96 75.88L141.91 83.47L142.37 82.39L124.42 74.8ZM121.71 74.29C121.36 75.11 121.75 76.06 122.57 76.41C123.39 76.76 124.34 76.37 124.69 75.55C125.04 74.73 124.65 73.78 123.83 73.43C123.01 73.08 122.06 73.47 121.71 74.29ZM147.64 57.6C145.78 57.37 143.94 57.81 142.54 58.22C142.09 58.35 141.63 58.5 141.18 58.64C140.09 58.99 139.06 59.32 138 59.51C135.33 59.99 132.56 59.54 130.23 58.28C129.75 58.02 129.16 58.17 128.86 58.62C128.56 59.07 128.67 59.68 129.09 60.01C131.18 61.65 132.71 64 133.33 66.64C133.58 67.69 133.69 68.77 133.81 69.9C133.86 70.37 133.91 70.85 133.97 71.32C134.15 72.77 134.48 74.63 135.44 76.24C136.38 77.82 139.71 81.38 143.43 81.62L143.54 79.9C140.47 79.7 137.57 76.46 136.92 75.36C136.13 74.03 135.84 72.39 135.68 71.11C135.62 70.65 135.57 70.19 135.53 69.73C135.41 68.59 135.29 67.41 135.01 66.24C134.55 64.32 133.68 62.53 132.49 61C134.37 61.48 136.36 61.56 138.31 61.21C139.49 61 140.62 60.64 141.71 60.29C142.15 60.15 142.59 60.01 143.03 59.88C144.27 59.51 145.88 59.12 147.43 59.31C148.7 59.47 152.83 60.82 154.24 63.56L155.77 62.77C154.06 59.45 149.47 57.83 147.64 57.6ZM140.16 65.32L139.52 66.3L148.24 72L148.88 71.02L140.16 65.32ZM138.1 64.67C137.69 65.3 137.87 66.14 138.49 66.54C139.12 66.95 139.96 66.77 140.36 66.15C140.77 65.52 140.59 64.68 139.97 64.28C139.35 63.87 138.51 64.04 138.1 64.67ZM140.99 48.64L140.28 49.57L155.77 61.39L156.48 60.46L140.99 48.64ZM138.5 47.47C137.96 48.18 138.09 49.2 138.8 49.74C139.51 50.28 140.53 50.15 141.07 49.44C141.61 48.73 141.48 47.71 140.77 47.17C140.05 46.62 139.04 46.76 138.5 47.47ZM167.77 37.77C166.03 37.08 164.13 37.05 162.68 37.1C162.21 37.12 161.73 37.14 161.26 37.17C160.12 37.24 159.04 37.3 157.96 37.22C155.26 37.02 152.69 35.89 150.74 34.09C150.34 33.72 149.73 33.72 149.33 34.08C148.93 34.45 148.88 35.05 149.21 35.49C150.83 37.6 151.72 40.26 151.67 42.97C151.65 44.05 151.49 45.12 151.32 46.25C151.25 46.72 151.18 47.19 151.12 47.66C150.94 49.11 150.79 51 151.32 52.79C151.84 54.56 154.17 58.83 157.72 59.99L158.26 58.35C155.33 57.39 153.34 53.53 152.98 52.3C152.54 50.81 152.67 49.15 152.84 47.87C152.9 47.41 152.97 46.95 153.04 46.5C153.21 45.36 153.39 44.19 153.41 43C153.45 41.03 153.05 39.07 152.28 37.29C153.98 38.22 155.89 38.8 157.86 38.94C159.05 39.03 160.24 38.96 161.38 38.89C161.84 38.86 162.3 38.84 162.76 38.82C164.05 38.77 165.71 38.79 167.16 39.37C168.35 39.84 172.01 42.18 172.7 45.18L174.38 44.8C173.53 41.16 169.49 38.45 167.77 37.77ZM158.6 43.38L157.73 44.17L164.75 51.86L165.62 51.07L158.6 43.38ZM156.77 42.24C156.22 42.74 156.18 43.6 156.68 44.15C157.18 44.7 158.04 44.74 158.59 44.24C159.14 43.74 159.18 42.88 158.68 42.33C158.18 41.78 157.32 41.74 156.77 42.24ZM163.57 27.44L162.65 28.17L174.71 43.48L175.63 42.75L163.57 27.44ZM161.44 25.68C160.74 26.23 160.62 27.25 161.17 27.95C161.72 28.65 162.74 28.77 163.44 28.22C164.14 27.67 164.26 26.65 163.71 25.95C163.16 25.25 162.14 25.13 161.44 25.68ZM192.21 23.59C190.69 22.49 188.87 21.99 187.44 21.67C186.98 21.57 186.51 21.48 186.04 21.38C184.92 21.16 183.86 20.95 182.83 20.6C180.26 19.73 178.06 18 176.62 15.77C176.33 15.31 175.74 15.16 175.26 15.41C174.78 15.66 174.58 16.24 174.79 16.74C175.83 19.18 176.03 21.98 175.31 24.59C175.02 25.63 174.6 26.63 174.15 27.68C173.96 28.12 173.78 28.56 173.6 29C173.06 30.36 172.45 32.15 172.51 34.02C172.57 35.86 173.77 40.58 176.91 42.59L177.84 41.14C175.24 39.48 174.27 35.24 174.23 33.97C174.18 32.42 174.72 30.84 175.2 29.64C175.37 29.21 175.55 28.79 175.73 28.36C176.18 27.3 176.64 26.21 176.96 25.06C177.49 23.16 177.59 21.17 177.29 19.25C178.71 20.58 180.41 21.61 182.28 22.24C183.41 22.62 184.58 22.85 185.7 23.07C186.15 23.16 186.61 23.25 187.06 23.35C188.32 23.63 189.93 24.06 191.18 24.98C192.21 25.73 195.18 28.91 195.1 31.99L196.82 32.04C196.94 28.31 193.7 24.67 192.21 23.59ZM181.93 26.73L180.89 27.28L185.77 36.48L186.81 35.93L181.93 26.73ZM180.44 25.18C179.78 25.53 179.53 26.35 179.88 27.01C180.23 27.67 181.05 27.92 181.71 27.57C182.37 27.22 182.62 26.4 182.27 25.74C181.92 25.08 181.1 24.83 180.44 25.18ZM190.71 12.53L189.63 13L197.49 30.84L198.57 30.37L190.71 12.53ZM189.09 10.3C188.27 10.66 187.9 11.62 188.26 12.43C188.62 13.25 189.58 13.62 190.39 13.26C191.21 12.9 191.58 11.94 191.22 11.13C190.86 10.32 189.91 9.94 189.09 10.3ZM219.41 15.95C218.22 14.51 216.57 13.56 215.27 12.91C214.85 12.7 214.42 12.49 213.99 12.29C212.96 11.8 211.98 11.33 211.08 10.74C208.81 9.26 207.1 7.03 206.27 4.51C206.1 3.99 205.57 3.7 205.04 3.82C204.51 3.95 204.17 4.46 204.26 4.99C204.66 7.62 204.15 10.37 202.8 12.72C202.26 13.66 201.6 14.52 200.91 15.42C200.62 15.8 200.33 16.18 200.05 16.56C199.19 17.74 198.15 19.32 197.75 21.15C197.35 22.95 197.33 27.81 199.88 30.55L201.14 29.38C199.04 27.13 199.16 22.78 199.43 21.53C199.77 20.01 200.68 18.62 201.44 17.58C201.71 17.21 201.99 16.84 202.27 16.47C202.97 15.56 203.69 14.61 204.28 13.58C205.26 11.87 205.86 9.97 206.04 8.03C207.08 9.67 208.48 11.09 210.13 12.17C211.13 12.82 212.2 13.33 213.24 13.83C213.66 14.03 214.07 14.23 214.49 14.44C215.64 15.02 217.09 15.84 218.08 17.04C218.89 18.02 220.97 21.85 220.12 24.8L221.78 25.28C222.81 21.7 220.59 17.37 219.41 15.95ZM208.67 16.43L207.53 16.7L209.96 26.83L211.1 26.56L208.67 16.43ZM207.62 14.55C206.89 14.72 206.44 15.46 206.62 16.18C206.79 16.91 207.53 17.36 208.25 17.18C208.98 17.01 209.43 16.27 209.25 15.55C209.08 14.82 208.35 14.38 207.62 14.55ZM220.11 4.7L218.95 4.89L222.11 24.12L223.27 23.93L220.11 4.7ZM219.09 2.13C218.21 2.28 217.61 3.11 217.76 3.99C217.91 4.87 218.74 5.47 219.62 5.32C220.5 5.17 221.1 4.34 220.95 3.46C220.8 2.59 219.97 1.99 219.09 2.13Z" fill="url(#paint0_linear_393_553)"/>
<defs>
<linearGradient id="paint0_linear_393_553" x1="369.5" y1="0" x2="5.5" y2="0" gradientUnits="userSpaceOnUse">
<stop stop-color="#D8860A"/>
<stop offset="0.328125" stop-color="#DED238"/>
<stop offset="0.625" stop-color="#B88A44"/>
<stop offset="0.6251" stop-color="#BA8D46"/>
<stop offset="1" stop-color="#FCEF44"/>
</linearGradient>
</defs>
</svg>
